# xmcd
#
# Track frame offsets: 
#        150
#        14880
#        30516
#        42932
#        55868
#        70777
#        84633
#        97452
#        111775
#        129506
#
# Disc length: 1890 seconds
#
# Revision: 0
# Processed by: cddbd v1.5.2PL0 Copyright (c) Steve Scherf et al.
# Submitted via: ExactAudioCopy v0.99pb4
#
DISCID=8a07600a
DTITLE=Fox Brothers - In This House
DYEAR=2001
DGENRE=Gospel
TTITLE0=In This House
TTITLE1=Like My Father Before Me
TTITLE2=Heaven's Highway
TTITLE3=Thank God For Kids
TTITLE4=Red, White, and Blue
TTITLE5=Teach Your Children Well
TTITLE6=Weather The Storm
TTITLE7=God's Gift
TTITLE8=The Robe
TTITLE9=Almost Home
EXTD=
EXTT0=
EXTT1=
EXTT2=
EXTT3=
EXTT4=
EXTT5=
EXTT6=
EXTT7=
EXTT8=
EXTT9=
PLAYORDER=
